inDegrees=no
num_controls=7
num_derivatives=13
num_iterations=94
num_multipliers=7
num_parameters=0
num_slacks=7
num_states=26
objective=0.585234
objective_accelerations=0.128605
objective_balance=0.001963
objective_effort=0.003629
objective_height=0.445090
objective_ligament=0.005948
solver_duration=1332.186323
status=Solve_Succeeded
success=true
DataType=double
version=3
OpenSimVersion=4.5
endheader
time	/jointset/ground_pelvis/pelvis_tilt/value	/jointset/ground_pelvis/pelvis_tx/value	/jointset/ground_pelvis/pelvis_ty/value	/jointset/hip_l/hip_flexion_l/value	/jointset/hip_l/hip_adduction_l/value	/jointset/hip_l/hip_rotation_l/value	/jointset/back/lumbar_extension/value	/jointset/patellofemoral_l/patellar_flexion_l/value	/jointset/knee_l/knee_flexion_l/value	/jointset/knee_l/knee_adduction_l/value	/jointset/knee_l/knee_rotation_l/value	/jointset/ankle_l/ankle_angle_l/value	/jointset/subtalar_l/subtalar_angle_l/value	/jointset/ground_pelvis/pelvis_tilt/speed	/jointset/ground_pelvis/pelvis_tx/speed	/jointset/ground_pelvis/pelvis_ty/speed	/jointset/hip_l/hip_flexion_l/speed	/jointset/hip_l/hip_adduction_l/speed	/jointset/hip_l/hip_rotation_l/speed	/jointset/back/lumbar_extension/speed	/jointset/patellofemoral_l/patellar_flexion_l/speed	/jointset/knee_l/knee_flexion_l/speed	/jointset/knee_l/knee_adduction_l/speed	/jointset/knee_l/knee_rotation_l/speed	/jointset/ankle_l/ankle_angle_l/speed	/jointset/subtalar_l/subtalar_angle_l/speed	/forceset/tau_hip_flexion_l	/forceset/tau_hip_adduction_l	/forceset/tau_hip_rotation_l	/forceset/tau_knee_flexion_l	/forceset/tau_ankle_angle_l	/forceset/tau_subtalar_angle_l	/forceset/tau_lumbar_extension	lambda_cid13_p0	lambda_cid13_p1	lambda_cid13_p2	lambda_cid13_p3	lambda_cid13_p4	lambda_cid13_p5	lambda_cid14_p0	/jointset/ground_pelvis/pelvis_tilt/accel	/jointset/ground_pelvis/pelvis_tx/accel	/jointset/ground_pelvis/pelvis_ty/accel	/jointset/hip_l/hip_flexion_l/accel	/jointset/hip_l/hip_adduction_l/accel	/jointset/hip_l/hip_rotation_l/accel	/jointset/back/lumbar_extension/accel	/jointset/patellofemoral_l/patellar_flexion_l/accel	/jointset/knee_l/knee_flexion_l/accel	/jointset/knee_l/knee_adduction_l/accel	/jointset/knee_l/knee_rotation_l/accel	/jointset/ankle_l/ankle_angle_l/accel	/jointset/subtalar_l/subtalar_angle_l/accel	gamma_cid13_p0	gamma_cid13_p1	gamma_cid13_p2	gamma_cid13_p3	gamma_cid13_p4	gamma_cid13_p5	gamma_cid14_p0
1	-0.03800323673735186	0.1386156038605587	0.9102504206775491	0.1433966577345613	-0.2137007906190125	-0.04142744120196783	-0.1323633780047896	0.108910815882454	0.1089108158824521	0.1164947410331617	0.1336933210158762	0.09055249287321991	0.2513682148835544	-0.1549026106783593	0.04950191703387257	-0.006121067452357544	0.02929968985994838	0.004251491628533054	-0.02869543869507854	0.1340610224262211	-0.1416042412905458	-0.1416042412905535	0.0006169107079471072	0.003074389306330498	-0.02019468178476816	-0.003746574616513554	0.02892317027581471	0.06377985125555231	0.02757118689235381	-0.07604752987682989	0.03074938441671424	-0.04448525282487898	0.01374217054710396	-23.11066038007915	28.02975198818091	-10.07632671400405	1.191764444608576	-460.9304072387042	-23.80609226910604	-18.99128758264525	0.02242111257126194	-0.02443288354568594	-0.005886131608630403	0.006658004131398177	0.004113048052393119	0.001468035937357131	0.01225448782339084	0.00193210145350944	0.00193210145350943	0.003555974991725665	-0.004706427548444372	-0.02681682056037725	-0.007171485962280373	-2.445759425198543e-10	3.088164313795135e-09	1.751680350310114e-10	2.631852608620974e-10	1.099455724734471e-10	7.605870323345963e-10	-1.131422529638297e-10
1.01	-0.03955108713194795	0.1391093901315283	0.910188919027603	0.1436899627291446	-0.2136580665539466	-0.0417143681605595	-0.1310222100273064	0.1074949007975621	0.107494900797422	0.1165010971535548	0.1337237787539575	0.0903492147188996	0.2513303996032293	-0.1546627375954541	0.04925414522966283	-0.006179013731523198	0.02936017575326625	0.004293096819350866	-0.02868910830407653	0.134167918254109	-0.1415741234104494	-0.1415741234104567	0.000654152678946464	0.003017060628665638	-0.02045974290704567	-0.003816201717233834	0.0285987494658819	0.06363827320124826	0.02745310998805059	-0.0750325630461452	0.02993739667394221	-0.04467743005764332	0.0138127673027178	-23.37076968725817	28.06671560539652	-9.97708538450499	1.223317005847362	-460.9244595552966	-23.81048283514186	-18.97128919981613	0.025479938115154	-0.02512806295579294	-0.005711529230074856	0.005573823884387116	0.004150071399168625	0.0003422785054642966	0.009208905784267545	0.004249496095229189	0.004249496096686705	0.003784743598735031	-0.006260776402431114	-0.02616971996351791	-0.006816869082611304	-2.408718204594276e-10	3.095160062765468e-09	2.186768437013654e-10	2.496805047830642e-10	1.32518652295956e-10	7.234582683584947e-10	-1.198571673710893e-10
1.02	-0.04109639688939255	0.139600662937644	0.9101268453842458	0.1439838385709711	-0.2136149332736443	-0.04200120646764646	-0.1296801127364835	0.1060794264644246	0.1060794264644123	0.1165078209814244	0.1337536602669972	0.09014332216102294	0.2512918963425035	-0.1543944832341627	0.04899922406310581	-0.006235466134582005	0.02941385932488216	0.004333334682378976	-0.02867770840009816	0.1342468851022841	-0.1415160909379972	-0.1415160909380042	0.0006904520676881724	0.002959144410010682	-0.02071756250537977	-0.003884170696192268	0.02827432865562939	0.06349669514642332	0.02733503308665205	-0.07401759621489938	0.02912540893125694	-0.04486960729100103	0.01388336405781419	-23.63088179573309	28.10357707567789	-9.877710532628981	1.255876505798401	-460.9185316385094	-23.8149991127889	-18.95105913126049	0.02809736824654033	-0.02586275601315562	-0.005587356387419671	0.005297539790475204	0.00383958249400616	0.002481938532807731	0.006668691879848366	0.007515019924342685	0.007515019924342592	0.003367458539402319	-0.004823935745786797	-0.02536851576951791	-0.00683986160945563	-2.343271494403352e-10	3.092503884118089e-09	2.670358097908563e-10	2.440701441982802e-10	2.19476118140748e-10	7.080397458524366e-10	-1.265865605669572e-10
1.03	-0.04263888040814516	0.140089349877898	0.9100642151706946	0.1442782144355342	-0.2135714027744387	-0.04228790631625737	-0.128337365542536	0.1046646681995687	0.1046646681993863	0.1165149060081443	0.1337829598088043	0.0899348846786391	0.2512527223069868	-0.1540973878806647	0.04873686555980521	-0.00629030451823097	0.02946026268719778	0.004372580540441442	-0.02866135661996311	0.134297947811353	-0.141430808364078	-0.1414308083640852	0.0007264794790001926	0.002900699781924574	-0.0209688140971808	-0.003950350547121014	0.02794796120372046	0.06336318195154127	0.02721531373586203	-0.07299923583618634	0.02831082191754989	-0.04506786177414699	0.01395511570890441	-23.89247396303117	28.1428833685321	-9.778207247341408	1.29093507212266	-460.9131801218686	-23.81451806469445	-18.93060115459131	0.0312404449570685	-0.02661710776654291	-0.005391209388613593	0.004154034316485093	0.003938884172206915	0.001347513840969212	0.003634176749069933	0.009747951559040102	0.009747951560320581	0.003709863118528076	-0.006364371532742036	-0.02483538616109626	-0.006464685710766365	-2.277534932277869e-10	3.089749216413386e-09	3.154442672825833e-10	2.3854033866956e-10	3.070905675163799e-10	6.928427564226035e-10	-1.33316101505566e-10
